# xmcd
#
# Track frame offsets:
#	151
#	16120
#	31598
#	43897
#	54634
#	67526
#	76003
#	88052
#	101759
#	112295
#	125810
#	137907
#	147562
#	161709
#	174084
#	189198
#	201080
#	213699
#	229861
#	241350
#
# Disc length: 3401 seconds
#
# Revision: 1
# Processed by: cddbd v1.5.1PL0 Copyright (c) Steve Scherf et al.
# Submitted via: audiograbber 1.83.01
#
DISCID=170d4714
DTITLE=Keith Lyn - Love Ballads
DYEAR=2005
DGENRE=Ballads
TTITLE0=Denver
TTITLE1=Winter Wonderland
TTITLE2=Red Sails In The Sunset
TTITLE3=Time
TTITLE4=Red, Red Wine
TTITLE5=Why Don't They Understand
TTITLE6=Seeing The Right Love
TTITLE7=Go Wrong
TTITLE8=In The Land Of Sea And Sun
TTITLE9=Strangers In The Night
TTITLE10=Green Green Grass Of Home
TTITLE11=Raindrops
TTITLE12=Too Young To Love
TTITLE13=Having A Hard Time
TTITLE14=If I Only Had Time
TTITLE15=My Exclusive Dreams
TTITLE16=Las Cosas
TTITLE17=Julie On My Mind
TTITLE18=Funny Familiar Forgotten Feelings
TTITLE19=Release Me
EXTD=Produced at Damsco Records By Keny G. (C)1980-2005
EXTT0=
EXTT1=
EXTT2=
EXTT3=
EXTT4=
EXTT5=
EXTT6=
EXTT7=
EXTT8=
EXTT9=
EXTT10=
EXTT11=
EXTT12=
EXTT13=
EXTT14=
EXTT15=
EXTT16=
EXTT17=
EXTT18=
EXTT19=
PLAYORDER=
